<?xml version="1.0" standalone="no"?>
<!DOCTYPE svg PUBLIC "-//W3C//DTD SVG 20010904//EN"
 "http://www.w3.org/TR/2001/REC-SVG-20010904/DTD/svg10.dtd">
<svg version="1.0" xmlns="http://www.w3.org/2000/svg"
 width="210.000000pt" height="240.000000pt" viewBox="0 0 210.000000 240.000000"
 preserveAspectRatio="xMidYMid meet">

<g transform="translate(0.000000,240.000000) scale(0.100000,-0.100000)"
fill="#000000" stroke="none">
<path d="M772 2375 c-237 -52 -444 -210 -544 -417 -64 -132 -89 -262 -64 -323
9 -20 16 -50 16 -66 0 -15 5 -31 10 -34 23 -14 10 -52 -27 -76 -63 -41 -63
-59 1 -285 105 -368 103 -362 138 -380 39 -20 96 -15 193 18 59 20 71 28 88
60 l19 38 -77 272 c-88 310 -100 333 -175 333 -32 0 -39 3 -34 15 4 8 9 31 12
50 3 19 11 44 18 55 7 11 20 52 30 90 53 223 206 381 424 441 93 26 407 26
500 0 218 -60 371 -218 424 -441 10 -38 23 -79 30 -90 7 -11 15 -36 18 -55 3
-19 8 -42 12 -50 5 -12 -2 -15 -34 -15 -75 0 -87 -23 -175 -332 l-77 -273 19
-37 c18 -39 22 -40 168 -88 30 -10 86 -5 117 11 30 16 31 19 134 378 64 226
64 244 1 285 -37 24 -50 62 -27 76 6 3 10 18 10 33 0 15 7 47 16 71 16 48 14
86 -12 181 -78 280 -309 495 -600 555 -96 20 -460 20 -552 0z"/>
<path d="M1541 234 c0 -11 3 -14 6 -6 3 7 2 16 -1 19 -3 4 -6 -2 -5 -13z"/>
</g>
</svg>
